<mxfile host="app.diagrams.net" modified="2024-04-28T05:30:08.343Z" agent="Mozilla/5.0 (Macintosh; Intel Mac OS X 10_15_7) AppleWebKit/537.36 (KHTML, like Gecko) Chrome/124.0.0.0 Safari/537.36" etag="xW7YFcfITSGngS638Lln" version="24.3.0" type="github">
  <diagram name="分支" id="PHPPveKMIz6JPXMT_rPC">
    <mxGraphModel dx="4974" dy="761" grid="1" gridSize="10" guides="1" tooltips="1" connect="1" arrows="1" fold="1" page="1" pageScale="1" pageWidth="3300" pageHeight="4681" math="0" shadow="0">
      <root>
        <mxCell id="0" />
        <mxCell id="1" parent="0" />
        <mxCell id="SiY_2SgH3QjzB5uucu-8-3" value="" style="group" vertex="1" connectable="0" parent="1">
          <mxGeometry x="290" y="155" width="60" height="525" as="geometry" />
        </mxCell>
        <mxCell id="SiY_2SgH3QjzB5uucu-8-1" value="" style="endArrow=classic;html=1;rounded=0;" edge="1" parent="SiY_2SgH3QjzB5uucu-8-3">
          <mxGeometry width="50" height="50" relative="1" as="geometry">
            <mxPoint x="30" y="45" as="sourcePoint" />
            <mxPoint x="30" y="525" as="targetPoint" />
          </mxGeometry>
        </mxCell>
        <mxCell id="SiY_2SgH3QjzB5uucu-8-2" value="dev" style="text;html=1;align=center;verticalAlign=middle;whiteSpace=wrap;rounded=0;" vertex="1" parent="SiY_2SgH3QjzB5uucu-8-3">
          <mxGeometry width="60" height="30" as="geometry" />
        </mxCell>
        <mxCell id="SiY_2SgH3QjzB5uucu-8-15" value="B" style="ellipse;whiteSpace=wrap;html=1;aspect=fixed;" vertex="1" parent="SiY_2SgH3QjzB5uucu-8-3">
          <mxGeometry x="15" y="115" width="30" height="30" as="geometry" />
        </mxCell>
        <mxCell id="SiY_2SgH3QjzB5uucu-8-4" value="" style="group" vertex="1" connectable="0" parent="1">
          <mxGeometry x="700" y="159" width="60" height="525" as="geometry" />
        </mxCell>
        <mxCell id="SiY_2SgH3QjzB5uucu-8-5" value="" style="endArrow=classic;html=1;rounded=0;" edge="1" parent="SiY_2SgH3QjzB5uucu-8-4">
          <mxGeometry width="50" height="50" relative="1" as="geometry">
            <mxPoint x="30" y="45" as="sourcePoint" />
            <mxPoint x="30" y="525" as="targetPoint" />
          </mxGeometry>
        </mxCell>
        <mxCell id="SiY_2SgH3QjzB5uucu-8-6" value="master" style="text;html=1;align=center;verticalAlign=middle;whiteSpace=wrap;rounded=0;" vertex="1" parent="SiY_2SgH3QjzB5uucu-8-4">
          <mxGeometry width="60" height="30" as="geometry" />
        </mxCell>
        <mxCell id="SiY_2SgH3QjzB5uucu-8-10" value="A" style="ellipse;whiteSpace=wrap;html=1;aspect=fixed;" vertex="1" parent="SiY_2SgH3QjzB5uucu-8-4">
          <mxGeometry x="15" y="75" width="30" height="30" as="geometry" />
        </mxCell>
        <mxCell id="SiY_2SgH3QjzB5uucu-8-7" value="" style="group" vertex="1" connectable="0" parent="1">
          <mxGeometry x="420" y="154" width="60" height="525" as="geometry" />
        </mxCell>
        <mxCell id="SiY_2SgH3QjzB5uucu-8-8" value="" style="endArrow=classic;html=1;rounded=0;" edge="1" parent="SiY_2SgH3QjzB5uucu-8-7">
          <mxGeometry width="50" height="50" relative="1" as="geometry">
            <mxPoint x="30" y="45" as="sourcePoint" />
            <mxPoint x="30" y="525" as="targetPoint" />
          </mxGeometry>
        </mxCell>
        <mxCell id="SiY_2SgH3QjzB5uucu-8-9" value="hotfix" style="text;html=1;align=center;verticalAlign=middle;whiteSpace=wrap;rounded=0;" vertex="1" parent="SiY_2SgH3QjzB5uucu-8-7">
          <mxGeometry width="60" height="30" as="geometry" />
        </mxCell>
        <mxCell id="SiY_2SgH3QjzB5uucu-8-17" value="郑" style="shape=umlActor;verticalLabelPosition=bottom;verticalAlign=top;html=1;outlineConnect=0;" vertex="1" parent="1">
          <mxGeometry x="-40" y="70" width="20" height="40" as="geometry" />
        </mxCell>
        <mxCell id="SiY_2SgH3QjzB5uucu-8-18" value="赵" style="shape=umlActor;verticalLabelPosition=bottom;verticalAlign=top;html=1;outlineConnect=0;" vertex="1" parent="1">
          <mxGeometry x="80" y="70" width="20" height="40" as="geometry" />
        </mxCell>
        <mxCell id="SiY_2SgH3QjzB5uucu-8-22" value="刘" style="shape=umlActor;verticalLabelPosition=bottom;verticalAlign=top;html=1;outlineConnect=0;" vertex="1" parent="1">
          <mxGeometry x="190" y="70" width="20" height="40" as="geometry" />
        </mxCell>
        <mxCell id="SiY_2SgH3QjzB5uucu-8-27" value="" style="group" vertex="1" connectable="0" parent="1">
          <mxGeometry x="170" y="155" width="60" height="525" as="geometry" />
        </mxCell>
        <mxCell id="SiY_2SgH3QjzB5uucu-8-28" value="" style="endArrow=classic;html=1;rounded=0;" edge="1" parent="SiY_2SgH3QjzB5uucu-8-27">
          <mxGeometry width="50" height="50" relative="1" as="geometry">
            <mxPoint x="30" y="45" as="sourcePoint" />
            <mxPoint x="30" y="525" as="targetPoint" />
          </mxGeometry>
        </mxCell>
        <mxCell id="SiY_2SgH3QjzB5uucu-8-29" value="dev" style="text;html=1;align=center;verticalAlign=middle;whiteSpace=wrap;rounded=0;" vertex="1" parent="SiY_2SgH3QjzB5uucu-8-27">
          <mxGeometry width="60" height="30" as="geometry" />
        </mxCell>
        <mxCell id="SiY_2SgH3QjzB5uucu-8-30" value="C" style="ellipse;whiteSpace=wrap;html=1;aspect=fixed;" vertex="1" parent="SiY_2SgH3QjzB5uucu-8-27">
          <mxGeometry x="15" y="135" width="30" height="30" as="geometry" />
        </mxCell>
        <mxCell id="SiY_2SgH3QjzB5uucu-8-31" value="" style="group" vertex="1" connectable="0" parent="1">
          <mxGeometry x="60" y="155" width="60" height="525" as="geometry" />
        </mxCell>
        <mxCell id="SiY_2SgH3QjzB5uucu-8-32" value="" style="endArrow=classic;html=1;rounded=0;" edge="1" parent="SiY_2SgH3QjzB5uucu-8-31">
          <mxGeometry width="50" height="50" relative="1" as="geometry">
            <mxPoint x="30" y="45" as="sourcePoint" />
            <mxPoint x="30" y="525" as="targetPoint" />
          </mxGeometry>
        </mxCell>
        <mxCell id="SiY_2SgH3QjzB5uucu-8-33" value="dev" style="text;html=1;align=center;verticalAlign=middle;whiteSpace=wrap;rounded=0;" vertex="1" parent="SiY_2SgH3QjzB5uucu-8-31">
          <mxGeometry width="60" height="30" as="geometry" />
        </mxCell>
        <mxCell id="SiY_2SgH3QjzB5uucu-8-34" value="D" style="ellipse;whiteSpace=wrap;html=1;aspect=fixed;" vertex="1" parent="SiY_2SgH3QjzB5uucu-8-31">
          <mxGeometry x="15" y="155" width="30" height="30" as="geometry" />
        </mxCell>
        <mxCell id="SiY_2SgH3QjzB5uucu-8-35" value="" style="group" vertex="1" connectable="0" parent="1">
          <mxGeometry x="-60" y="156" width="60" height="525" as="geometry" />
        </mxCell>
        <mxCell id="SiY_2SgH3QjzB5uucu-8-36" value="" style="endArrow=classic;html=1;rounded=0;" edge="1" parent="SiY_2SgH3QjzB5uucu-8-35">
          <mxGeometry width="50" height="50" relative="1" as="geometry">
            <mxPoint x="30" y="45" as="sourcePoint" />
            <mxPoint x="30" y="525" as="targetPoint" />
          </mxGeometry>
        </mxCell>
        <mxCell id="SiY_2SgH3QjzB5uucu-8-37" value="dev" style="text;html=1;align=center;verticalAlign=middle;whiteSpace=wrap;rounded=0;" vertex="1" parent="SiY_2SgH3QjzB5uucu-8-35">
          <mxGeometry width="60" height="30" as="geometry" />
        </mxCell>
        <mxCell id="SiY_2SgH3QjzB5uucu-8-38" value="E" style="ellipse;whiteSpace=wrap;html=1;aspect=fixed;" vertex="1" parent="SiY_2SgH3QjzB5uucu-8-35">
          <mxGeometry x="15" y="174" width="30" height="30" as="geometry" />
        </mxCell>
        <mxCell id="SiY_2SgH3QjzB5uucu-8-39" style="edgeStyle=orthogonalEdgeStyle;rounded=0;orthogonalLoop=1;jettySize=auto;html=1;exitX=0.5;exitY=0;exitDx=0;exitDy=0;entryX=0.5;entryY=0;entryDx=0;entryDy=0;curved=1;" edge="1" parent="1" source="SiY_2SgH3QjzB5uucu-8-15" target="SiY_2SgH3QjzB5uucu-8-30">
          <mxGeometry relative="1" as="geometry" />
        </mxCell>
        <mxCell id="SiY_2SgH3QjzB5uucu-8-40" style="edgeStyle=orthogonalEdgeStyle;rounded=0;orthogonalLoop=1;jettySize=auto;html=1;exitX=0.5;exitY=0;exitDx=0;exitDy=0;entryX=0.5;entryY=0;entryDx=0;entryDy=0;curved=1;" edge="1" parent="1" source="SiY_2SgH3QjzB5uucu-8-15" target="SiY_2SgH3QjzB5uucu-8-34">
          <mxGeometry relative="1" as="geometry">
            <Array as="points">
              <mxPoint x="320" y="230" />
              <mxPoint x="90" y="230" />
            </Array>
          </mxGeometry>
        </mxCell>
        <mxCell id="SiY_2SgH3QjzB5uucu-8-41" style="edgeStyle=orthogonalEdgeStyle;rounded=0;orthogonalLoop=1;jettySize=auto;html=1;exitX=0.5;exitY=0;exitDx=0;exitDy=0;entryX=0.5;entryY=0;entryDx=0;entryDy=0;curved=1;" edge="1" parent="1" source="SiY_2SgH3QjzB5uucu-8-15" target="SiY_2SgH3QjzB5uucu-8-38">
          <mxGeometry relative="1" as="geometry">
            <Array as="points">
              <mxPoint x="320" y="210" />
              <mxPoint x="-30" y="210" />
            </Array>
          </mxGeometry>
        </mxCell>
      </root>
    </mxGraphModel>
  </diagram>
</mxfile>
